#!OML:ASF X:\für Bonn\!DataBase\2005_08_11_Bastian_Final\c3d\Bastian.ASF
:FULLY-SPECIFIED
:DEGREES
231
root -21.1959 17.5544 0.0383939 5.79811 -74.2614 -11.1848
lowerback 8.31613 -0.0970452 -3.65572
upperback 5.40201 -0.536615 -1.81223
thorax 0.946143 -0.402323 0.21939
lowerneck -2.93729 3.80021 -5.07378
upperneck -13.8621 5.71525 8.01644
head -4.01491 2.61679 3.14672
rclavicle 9.54166e-015 -1.43125e-014
rhumerus -49.5446 -1.73394 -85.9088
rradius 34.6577
rwrist -8.18897
rhand -6.36382 -4.47094
rfingers 7.12502
rthumb 19.4826 -33.5149
lclavicle 9.54166e-015 -1.43125e-014
lhumerus -18.1001 -18.0405 89.137
lradius 40.3909
lwrist 22.6941
lhand -12.8141 -10.2462
lfingers 7.12502
lthumb 13.2724 19.3112
rfemur -2.33235 21.0082 24.3772
rtibia 34.8971
rfoot -20.4 6.60767
rtoes -6.30069
lfemur -13.2716 -15.969 -16.3122
ltibia 27.6605
lfoot -9.03264 -29.2554
ltoes -25.3878
232
root -21.1684 17.5381 -0.00407909 4.72211 -73.335 -10.1266
lowerback 8.50892 -0.109833 -3.69828
upperback 5.44738 -0.566062 -1.80474
thorax 0.888989 -0.41834 0.254233
lowerneck -2.99352 4.17092 -4.90707
upperneck -13.8125 6.18488 7.64212
head -4.00944 2.86245 2.98742
rclavicle 3.69739e-014 -2.22639e-014
rhumerus -49.7871 -1.83095 -85.8739
rradius 33.0678
rwrist -7.86922
rhand -4.62742 -4.67724
rfingers 7.12502
rthumb 21.1514 -33.5434
lclavicle 3.69739e-014 -2.22639e-014
lhumerus -18.2139 -18.1985 89.3004
lradius 40.5254
lwrist 22.4512
lhand -12.7757 -10.3594
lfingers 7.12502
lthumb 13.3094 19.1956
rfemur -2.11871 21.415 24.554
rtibia 34.915
rfoot -20.5985 6.73005
rtoes -5.54862
lfemur -13.6184 -16.4533 -16.3638
ltibia 27.8428
lfoot -8.82966 -29.6204
ltoes -25.0336
233
root -21.1403 17.5228 -0.0498733 3.77189 -72.3996 -9.18244
lowerback 8.71257 -0.109961 -3.76633
upperback 5.482 -0.581058 -1.78191
thorax 0.814937 -0.427406 0.318374
lowerneck -3.08511 4.53783 -4.70772
upperneck -13.738 6.6461 7.24684
head -3.98573 3.10419 2.81817
rclavicle -1.0138e-014 2.8625e-014
rhumerus -50.1075 -1.72316 -86.0461
rradius 31.6659
rwrist -7.2084
rhand -3.14519 -4.85219
rfingers 7.12502
rthumb 22.5746 -33.5523
lclavicle -1.0138e-014 2.8625e-014
lhumerus -18.3202 -18.2119 89.4703
lradius 40.568
lwrist 22.115
lhand -12.6397 -10.4922
lfingers 7.12502
lthumb 13.4404 19.0541
rfemur -1.9325 21.7592 24.7413
rtibia 34.9408
rfoot -20.8019 6.77173
rtoes -4.84558
lfemur -13.9919 -16.9195 -16.3979
ltibia 28.0176
lfoot -8.43888 -30.0373
ltoes -24.3899
234
root -21.1116 17.5073 -0.0983473 2.99611 -71.4715 -8.40184
lowerback 8.89959 -0.110317 -3.8234
upperback 5.5335 -0.594764 -1.75713
thorax 0.767554 -0.436322 0.378066
lowerneck -3.24653 4.90875 -4.41467
upperneck -13.6301 7.10266 6.77049
head -3.93147 3.34398 2.61212
rclavicle -2.78299e-014 9.54166e-015
rhumerus -50.3804 -1.48176 -86.392
rradius 30.3644
rwrist -6.15196
rhand -1.8862 -4.93945
rfingers 7.12502
rthumb 23.7825 -33.4876
lclavicle -2.78299e-014 9.54166e-015
lhumerus -18.3678 -18.1159 89.5887
lradius 40.5416
lwrist 21.6955
lhand -12.5057 -10.6618
lfingers 7.12502
lthumb 13.5696 18.876
rfemur -1.77867 22.0525 24.9504
rtibia 34.9736
rfoot -21.0198 6.74219
rtoes -3.99689
lfemur -14.3795 -17.3215 -16.3992
ltibia 28.1698
lfoot -8.05127 -30.4731
ltoes -24.0081
235
root -21.0824 17.4924 -0.149539 2.22461 -70.5457 -7.63319
lowerback 9.12177 -0.0963757 -3.92193
upperback 5.57498 -0.594833 -1.71943
thorax 0.690934 -0.438994 0.473635
lowerneck -3.40506 5.27247 -4.16216
upperneck -13.4876 7.54906 6.3037
head -3.86477 3.58088 2.41794
rclavicle -1.37161e-014 6.36111e-015
rhumerus -50.7387 -1.06937 -86.9087
rradius 29.2513
rwrist -4.89352
rhand -0.923611 -4.90285
rfingers 7.12502
rthumb 24.7054 -33.3278
lclavicle -1.37161e-014 6.36111e-015
lhumerus -18.4242 -17.9797 89.706
lradius 40.4384
lwrist 21.2626
lhand -12.3113 -10.8668
lfingers 7.12502
lthumb 13.757 18.6584
rfemur -1.64325 22.2578 25.1468
rtibia 35.0092
rfoot -21.1954 6.60287
rtoes -3.39758
lfemur -14.7479 -17.686 -16.4186
ltibia 28.2841
lfoot -7.63128 -30.9162
ltoes -23.6921
236
root -21.052 17.4803 -0.202389 1.5786 -69.6031 -6.99055
lowerback 9.35434 -0.0844326 -3.99516
upperback 5.62421 -0.596382 -1.67152
thorax 0.616653 -0.442088 0.565784
lowerneck -3.58259 5.64487 -3.97756
upperneck -13.0665 7.97785 5.73331
head -4.13616 3.83629 2.42525
rclavicle -2.68359e-014 3.97569e-014
rhumerus -51.1081 -0.710861 -87.4517
rradius 28.2711
rwrist -3.44015
rhand -0.248774 -4.64946
rfingers 7.12502
rthumb 25.3521 -32.9842
lclavicle -2.68359e-014 3.97569e-014
lhumerus -18.4502 -17.782 89.8058
lradius 40.2621
lwrist 20.7484
lhand -12.1326 -11.0274
lfingers 7.12502
lthumb 13.9293 18.486
rfemur -1.55388 22.309 25.3549
rtibia 35.0428
rfoot -21.3347 6.34099
rtoes -3.22333
lfemur -15.1137 -18.0539 -16.4103
ltibia 28.3637
lfoot -7.16564 -31.3376
ltoes -23.1849
237
root -21.0213 17.4703 -0.257463 1.02381 -68.681 -6.41749
lowerback 9.55768 -0.0545121 -4.04267
upperback 5.68394 -0.570697 -1.63553
thorax 0.567853 -0.431391 0.628541
lowerneck -3.73355 6.0119 -3.91168
upperneck -13.0019 8.45736 5.50523
head -4.09604 4.08478 2.32202
rclavicle -2.18663e-014 1.74931e-014
rhumerus -51.4438 -0.527057 -87.9564
rradius 27.3538
rwrist -1.71495
rhand 0.183723 -4.19044
rfingers 7.12502
rthumb 25.7663 -32.4658
lclavicle -2.18663e-014 1.74931e-014
lhumerus -18.4683 -17.6325 89.844
lradius 40.0852
lwrist 20.2761
lhand -11.9379 -11.1088
lfingers 7.12502
lthumb 14.1168 18.3917
rfemur -1.52707 22.2748 25.5495
rtibia 35.0675
rfoot -21.3542 6.02748
rtoes -3.30188
lfemur -15.4822 -18.3257 -16.394
ltibia 28.4091
lfoot -6.79818 -31.7802
ltoes -23.079
238
root -20.9885 17.4616 -0.314374 0.52768 -67.7481 -5.93308
lowerback 9.82154 -0.0330725 -4.08401
upperback 5.74289 -0.559219 -1.57106
thorax 0.486068 -0.427576 0.718967
lowerneck -3.87207 6.37867 -3.89077
upperneck -12.9484 8.93356 5.24521
head -4.06127 4.33456 2.21664
rclavicle -4.55217e-014 1.51076e-014
rhumerus -51.837 -0.328708 -88.4469
rradius 26.6153
rwrist -0.0219474
rhand 0.363761 -3.60884
rfingers 7.12502
rthumb 25.9387 -31.8591
lclavicle -4.55217e-014 1.51076e-014
lhumerus -18.5178 -17.4214 89.8975
lradius 39.8932
lwrist 19.8048
lhand -11.7865 -11.1206
lfingers 7.12502
lthumb 14.2627 18.3696
rfemur -1.49092 22.1847 25.7589
rtibia 35.0794
rfoot -21.3171 5.62714
rtoes -3.48244
lfemur -15.8166 -18.5693 -16.3713
ltibia 28.4253
lfoot -6.47719 -32.1656
ltoes -23.19
239
root -20.9561 17.4538 -0.372172 0.0992246 -66.8264 -5.49911
lowerback 10.0495 0.00512157 -4.07803
upperback 5.80979 -0.51979 -1.53093
thorax 0.430148 -0.408876 0.754753
lowerneck -3.99858 6.72475 -3.84476
upperneck -12.9191 9.38272 4.99214
head -4.03341 4.5687 2.11071
rclavicle 4.77083e-015 -1.35174e-014
rhumerus -52.2579 -0.235902 -88.9728
rradius 26.0568
rwrist 1.53013
rhand 0.370451 -3.0009
rfingers 7.12502
rthumb 25.9452 -31.2502
lclavicle 4.77083e-015 -1.35174e-014
lhumerus -18.542 -17.2662 89.9019
lradius 39.6636
lwrist 19.35
lhand -11.6535 -11.1133
lfingers 7.12502
lthumb 14.3908 18.3678
rfemur -1.4701 22.0842 25.9523
rtibia 35.0656
rfoot -21.2516 4.98522
rtoes -3.99776
lfemur -16.1652 -18.7616 -16.3432
ltibia 28.4305
lfoot -6.26373 -32.5556
ltoes -23.5669
240
root -20.9214 17.446 -0.430946 -0.290635 -65.9093 -5.08959
lowerback 10.2876 0.0702714 -4.02625
upperback 5.87715 -0.441112 -1.48453
thorax 0.367111 -0.369421 0.767481
lowerneck -4.07317 7.04759 -3.86773
upperneck -12.9716 9.80152 4.72684
head -4.04543 4.78954 2.01199
rclavicle 5.78463e-014 3.97569e-015
rhumerus -52.7303 -0.313079 -89.4043
rradius 25.6998
rwrist 2.97206
rhand 0.276218 -2.45768
rfingers 7.12502
rthumb 25.8549 -30.7202
lclavicle 5.78463e-014 3.97569e-015
lhumerus -18.5489 -17.1524 89.9469
lradius 39.4238
lwrist 18.9638
lhand -11.5737 -10.958
lfingers 7.12502
lthumb 14.4677 18.5176
rfemur -1.48527 21.9506 26.1018
rtibia 35.0304
rfoot -21.0972 4.21553
rtoes -4.45446
lfemur -16.5211 -18.9553 -16.3176
ltibia 28.424
lfoot -6.21493 -32.8608
ltoes -24.1628
241
root -20.8861 17.4403 -0.490591 -0.563042 -65.0139 -4.82251
lowerback 10.5024 0.144015 -3.91803
upperback 5.98858 -0.344272 -1.42325
thorax 0.361656 -0.32179 0.76132
lowerneck -4.21874 7.36364 -3.96516
upperneck -13.0291 10.2177 4.51149
head -4.05353 5.01148 1.94603
rclavicle 5.36719e-015 -1.27222e-014
rhumerus -53.125 -0.497015 -89.79
rradius 25.4627
rwrist 4.29874
rhand 0.168833 -2.08864
rfingers 7.12502
rthumb 25.7521 -30.3661
lclavicle 5.36719e-015 -1.27222e-014
lhumerus -18.4852 -17.0916 89.9614
lradius 39.1428
lwrist 18.7101
lhand -11.5481 -10.8137
lfingers 7.12502
lthumb 14.4924 18.6602
rfemur -1.49649 21.7754 26.2908
rtibia 34.9611
rfoot -20.8742 3.3679
rtoes -4.79122
lfemur -16.847 -19.0805 -16.2424
ltibia 28.4024
lfoot -6.27393 -33.1455
ltoes -24.7996
